<svg xmlns="http://www.w3.org/2000/svg" x="0px" y="0px"
width="50" height="50"
viewBox="0 0 172 172"
style=" fill:#000000;"><g fill="none" fill-rule="nonzero" stroke="none" stroke-width="1" stroke-linecap="butt" stroke-linejoin="miter" stroke-miterlimit="10" stroke-dasharray="" stroke-dashoffset="0" font-family="none" font-weight="none" font-size="none" text-anchor="none" style="mix-blend-mode: normal"><path d="M0,172v-172h172v172z" fill="none"></path><g fill="#000000"><path d="M71.36656,5.83188l-16.79688,5.60344l3.5475,19.91437c-1.11531,0.59125 -1.73344,0.76594 -3.48031,2.13656c-2.95625,2.32469 -6.47688,5.93938 -6.47688,11.12625c0,5.805 3.09063,10.48125 5.65719,14.70063c2.58,4.21937 4.66281,7.96844 4.66281,11.20687c0,2.35156 -0.57781,3.91031 -1.67969,5.805c-1.11531,1.90813 -2.82188,4.04469 -4.64938,6.86656c-3.66844,5.65719 -7.43094,14.02875 -7.43094,28.94437c0,19.36344 6.9875,46.93719 6.9875,46.93719l0.48375,1.96187l1.94844,0.52406c0,0 12.92688,3.49375 31.86031,3.49375c18.93344,0 31.86031,-3.49375 31.86031,-3.49375l1.94844,-0.52406l0.48375,-1.96187c0,0 6.9875,-27.57375 6.9875,-46.93719c0,-14.91562 -3.7625,-23.28719 -7.43094,-28.94437c-1.8275,-2.82188 -3.53406,-4.95844 -4.64938,-6.86656c-1.10187,-1.89469 -1.67969,-3.45344 -1.67969,-5.805c0,-3.23844 2.08281,-6.9875 4.66281,-11.20687c2.56656,-4.21938 5.65719,-8.89563 5.65719,-14.70063c0,-5.18687 -3.52062,-8.80156 -6.47687,-11.12625c-1.74688,-1.37062 -2.365,-1.54531 -3.48031,-2.13656l3.5475,-19.91437l-16.79688,-5.60344l-0.80625,3.7625c-2.29781,10.81719 -11.61,16.07125 -13.82719,17.25375c-2.21719,-1.1825 -11.52937,-6.43656 -13.82719,-17.25375zM66.93219,14.56625c4.85094,13.27625 17.61656,19.51125 17.61656,19.51125l1.45125,0.67188l1.45125,-0.67188c0,0 12.76563,-6.235 17.61656,-19.51125l4.54187,1.51844l-3.38625,18.98719l2.45906,1.10187c0,0 2.23063,1.00781 4.43438,2.72781c2.20375,1.72 3.84312,3.91031 3.84312,5.71094c0,3.15781 -2.06937,6.88 -4.66281,11.11281c-2.58,4.23281 -5.65719,8.94937 -5.65719,14.79469c0,3.66844 1.14219,6.71875 2.62031,9.25844c1.46469,2.55313 3.19812,4.67625 4.81062,7.14875c3.21156,4.97188 6.32906,11.38156 6.32906,25.20875c0,16.51469 -5.56312,39.96313 -6.3425,43.18813c-2.45906,0.60469 -12.16094,2.84875 -28.0575,2.84875c-15.89656,0 -25.59844,-2.24406 -28.0575,-2.84875c-0.77937,-3.225 -6.3425,-26.67344 -6.3425,-43.18813c0,-13.82719 3.1175,-20.23687 6.32906,-25.20875c1.6125,-2.4725 3.34594,-4.59562 4.81062,-7.14875c1.47813,-2.53969 2.62031,-5.59 2.62031,-9.25844c0,-5.84531 -3.07719,-10.56187 -5.65719,-14.79469c-2.59344,-4.23281 -4.66281,-7.955 -4.66281,-11.11281c0,-1.80062 1.63938,-3.99094 3.84313,-5.71094c2.20375,-1.72 4.43437,-2.72781 4.43437,-2.72781l2.45906,-1.10187l-3.38625,-18.98719z"></path></g></g></svg>