<svg width="140" height="19" viewBox="0 0 140 19" fill="none" xmlns="http://www.w3.org/2000/svg">
<path fill-rule="evenodd" clip-rule="evenodd" d="M11.0516 14.5503C10.8408 13.9927 9.84463 12.5977 9.50297 12.1534C7.74927 12.1534 6.22335 12.1648 5.97288 10.4338C5.74511 8.86248 7.38492 7.63286 8.87067 8.30438C9.43445 8.56098 10.7212 10.7017 11.1598 11.3392C11.8143 12.2957 12.828 13.6075 13.2892 14.5333L16.1643 14.539C15.7943 13.7356 14.8775 12.5405 14.3255 11.7319C13.3119 10.2518 11.655 7.31388 10.2714 6.39709C6.82681 4.11979 1.99292 7.88899 3.96872 12.0622C4.44129 13.0646 5.34673 13.867 6.43978 14.2772C7.60702 14.7167 9.69058 14.5503 11.0516 14.5503ZM15.73 10.3199L18.5999 10.3256L13.5793 2.85C13.0501 2.07593 12.3157 1.12512 11.9225 0.350586L9.00772 0.367598C9.9486 1.97338 11.2907 3.80033 12.3497 5.34374L15.73 10.3199ZM1.5487 6.27753C-0.147817 6.77751 0.626722 9.02741 2.19848 8.64604C3.62706 8.30438 3.16016 5.7993 1.5487 6.27753Z" fill="#ffffff"/>
<path d="M34.1389 5.12338C32.8753 5.12338 31.7931 5.62477 31.0989 6.50139C30.4836 5.56003 29.4657 5.12338 28.2692 5.12338C27.2328 5.12338 26.3104 5.48206 25.6497 6.19374V5.26987H22.7236V14.0322H25.7924V9.6846C25.7924 8.32739 26.4413 7.7225 27.3467 7.7225C28.1723 7.7225 28.6732 8.25792 28.6732 9.52204V14.0313H31.7421V9.68366C31.7421 8.32881 32.3914 7.72486 33.2793 7.72486C34.0879 7.72486 34.6058 8.26028 34.6058 9.5244V14.0336H37.6747V9.02443C37.6747 6.3048 36.1762 5.12338 34.1389 5.12338ZM43.3512 5.12338C41.9807 5.12338 40.4931 5.48206 39.4912 6.14271L40.5214 8.22673C41.1192 7.75983 42.0587 7.47062 42.9018 7.47062C44.1144 7.47062 44.7122 7.97155 44.7575 8.85997H43.0152C40.2993 8.85997 39.1151 9.86229 39.1151 11.4789C39.1151 12.9992 40.2823 14.1778 42.3833 14.1778C43.6593 14.1778 44.5354 13.7449 44.9683 12.9018V14.036H47.8321V9.16856C47.8321 6.38561 46.1979 5.12338 43.3512 5.12338ZM43.2373 12.2407C42.5142 12.2407 42.0932 11.8627 42.0932 11.3466C42.0932 10.8173 42.4462 10.4587 43.431 10.4587H44.7575V11.2195C44.5184 11.9142 43.9206 12.2388 43.2373 12.2388V12.2407ZM56.5604 5.26987V6.33457C55.9626 5.50899 55.0231 5.12149 53.8105 5.12149C51.4817 5.12149 49.5101 6.77264 49.5101 9.34058C49.5101 11.9312 51.4803 13.5767 53.8105 13.5767C54.9262 13.5767 55.8147 13.2407 56.4181 12.546V12.8366C56.4181 14.2071 55.7178 14.9547 54.0723 14.9547C53.036 14.9547 51.8404 14.596 51.1117 14.0152L49.9959 16.1673C51.0663 16.9234 52.666 17.3119 54.3436 17.3119C57.6118 17.3119 59.4851 15.7458 59.4851 12.4321V5.26987H56.5604ZM54.5392 11.1396C53.4405 11.1396 52.6149 10.4109 52.6149 9.34058C52.6149 8.27021 53.4405 7.56419 54.5392 7.56419C55.6379 7.56419 56.4465 8.27588 56.4465 9.34058C56.4465 10.4053 55.6379 11.1396 54.5392 11.1396ZM65.1918 5.12338C63.8214 5.12338 62.3337 5.48206 61.3319 6.14271L62.3621 8.22673C62.9599 7.75983 63.8994 7.47062 64.742 7.47062C65.955 7.47062 66.5528 7.97155 66.5982 8.85997H64.8558C62.14 8.85997 60.9557 9.86229 60.9557 11.4789C60.9557 12.9992 62.123 14.1778 64.224 14.1778C65.5 14.1778 66.3761 13.7449 66.809 12.9018V14.036H69.6727V9.16856C69.6727 6.38561 68.0386 5.12338 65.1918 5.12338ZM65.0836 12.2407C64.3549 12.2407 63.9339 11.8627 63.9339 11.3466C63.9339 10.8173 64.2869 10.4587 65.2774 10.4587H66.6006V11.2195C66.3591 11.9142 65.7613 12.2388 65.0836 12.2388V12.2407ZM78.2872 5.59595L74.8937 13.1438L71.529 5.59595H70.6736L74.4712 14.0341H75.2968L79.1127 5.59595H78.2872ZM87.7806 9.77912C87.7806 7.27451 86.0671 5.52601 83.7553 5.52601C81.4435 5.52601 79.7129 7.30806 79.7129 9.81314C79.7129 12.3182 81.5087 14.0946 84.0605 14.0946C85.3365 14.0946 86.5032 13.6277 87.2433 12.7242L86.7764 12.1887C86.1327 12.9803 85.1422 13.3673 84.0775 13.3673C82.0564 13.3673 80.5876 12.0125 80.5021 10.0083H87.7612C87.7612 9.92845 87.7782 9.84291 87.7782 9.78054L87.7806 9.77912ZM83.7553 6.23769C85.551 6.23769 86.8742 7.54718 86.9895 9.3746H80.5191C80.65 7.53158 81.9595 6.23769 83.7529 6.23769H83.7553ZM94.4084 5.52601C92.8082 5.52601 91.6297 6.23769 91.0659 7.41628V5.59595H90.2852V14.0322H91.0938V9.53433C91.0938 7.53017 92.3064 6.25471 94.2935 6.25471C96.007 6.25471 97.0264 7.25655 97.0264 9.16431V14.0318H97.8349V9.10145C97.8335 6.73861 96.4612 5.52601 94.406 5.52601H94.4084ZM105.015 12.9335C104.673 13.2407 104.207 13.3999 103.706 13.3999C102.67 13.3999 102.14 12.8021 102.14 11.7204V6.28873H104.822V5.59595H102.14V3.75293H101.329V5.59595H99.7748V6.29062H101.329V11.8003C101.329 13.2237 102.138 14.0946 103.624 14.0946C104.256 14.0946 104.933 13.9013 105.354 13.4968L105.013 12.9335H105.015ZM114.183 5.59405V10.0853C114.183 12.0895 113.004 13.365 111.097 13.365C109.332 13.365 108.313 12.3631 108.313 10.4558V5.59595H107.501V10.5248C107.501 12.882 108.879 14.0946 111.025 14.0946C112.517 14.0946 113.662 13.3999 114.214 12.2218V14.0322H114.988V5.59595L114.183 5.59405ZM119.192 7.43329V5.59595H118.418V14.0322H119.227V9.6312C119.227 7.54718 120.342 6.30574 122.216 6.30574C122.284 6.30574 122.347 6.31756 122.409 6.31756V5.52601C120.824 5.52601 119.708 6.20367 119.19 7.43329H119.192ZM131.707 9.77912C131.707 7.27451 129.993 5.52601 127.681 5.52601C125.37 5.52601 123.639 7.30806 123.639 9.81314C123.639 12.3182 125.432 14.0946 127.989 14.0946C129.265 14.0946 130.432 13.6277 131.172 12.7242L130.705 12.1887C130.061 12.9803 129.071 13.3673 128.006 13.3673C125.985 13.3673 124.516 12.0125 124.431 10.0083H131.69C131.69 9.92845 131.707 9.84291 131.707 9.78054V9.77912ZM127.681 6.23769C129.475 6.23769 130.8 7.54718 130.916 9.3746H124.445C124.576 7.53158 125.886 6.23769 127.679 6.23769H127.681ZM136.347 14.0946C138.499 14.0946 139.678 13.1608 139.678 11.7833C139.678 8.56651 134.087 10.3599 134.087 7.82032C134.087 6.91536 134.81 6.23769 136.461 6.23769C137.366 6.23769 138.289 6.48248 139 7.00042L139.37 6.35158C138.709 5.85066 137.543 5.52601 136.478 5.52601C134.343 5.52601 133.278 6.56235 133.278 7.83734C133.278 11.151 138.869 9.34057 138.869 11.8003C138.869 12.7568 138.158 13.3829 136.381 13.3829C135.134 13.3829 133.99 12.916 133.341 12.3641L132.968 13.0153C133.63 13.6296 134.956 14.097 136.345 14.097L136.347 14.0946ZM75.0269 18.7409C75.517 18.7409 75.938 18.5642 76.2173 18.2338L75.8586 17.8865C75.7593 18.0016 75.6358 18.0935 75.497 18.1555C75.3581 18.2176 75.2073 18.2484 75.0553 18.2456C74.4343 18.2456 73.9849 17.8071 73.9849 17.1866C73.9849 16.5661 74.4343 16.1219 75.0553 16.1219C75.2065 16.1208 75.3563 16.1516 75.4947 16.2124C75.6332 16.2733 75.7572 16.3627 75.8586 16.4749L76.2173 16.1389C75.938 15.8081 75.517 15.6319 75.0331 15.6319C74.1106 15.6319 73.4263 16.2812 73.4263 17.1866C73.4263 18.0921 74.1097 18.7409 75.026 18.7409H75.0269ZM79.918 18.6936H80.4988L79.1435 15.6692H78.5972L77.2532 18.6936H77.8203L78.1166 17.9933H79.6137L79.9156 18.6936H79.918ZM78.3065 17.5552L78.8703 16.232L79.4341 17.5552H78.3065ZM83.0951 15.6706H81.8664V18.6951H82.4245V17.8241H83.0965C83.8876 17.8241 84.3724 17.4139 84.3724 16.7481C84.3724 16.0822 83.888 15.672 83.0965 15.672L83.0951 15.6706ZM83.0724 17.3501H82.4231V16.1503H83.0724C83.562 16.1503 83.8124 16.3667 83.8124 16.7481C83.8124 17.1294 83.5596 17.3515 83.07 17.3515L83.0724 17.3501ZM85.9191 18.6936H86.4711V15.6692H85.9191V18.6936ZM88.8798 18.6936H89.4317V16.1503H90.4241V15.672H87.8846V16.1503H88.8812L88.8798 18.6936ZM93.924 18.6936H94.5048L93.1556 15.6692H92.6088L91.2596 18.6936H91.8348L92.1249 17.9933H93.6225L93.924 18.6936ZM92.313 17.5552L92.8768 16.232L93.4401 17.5552H92.313ZM95.8714 18.6936H97.9951V18.2211H96.4286V15.6692H95.8705L95.8714 18.6936ZM102.535 18.2211V17.3912H103.981V16.93H102.535V16.1446H104.163V15.672H101.977V18.6965H104.22V18.2239L102.535 18.2211ZM110.568 16.1418V15.6692H108.382V18.6936H108.94V17.5396H110.386V17.0609H108.94V16.1446L110.568 16.1418ZM113.461 18.7381C114.389 18.7381 115.072 18.0765 115.072 17.1838C115.072 16.2911 114.389 15.629 113.461 15.629C112.533 15.629 111.849 16.2906 111.849 17.1838C111.849 18.0769 112.529 18.7409 113.457 18.7409L113.461 18.7381ZM113.461 18.2428C112.857 18.2428 112.408 17.7986 112.408 17.1838C112.408 16.569 112.857 16.1191 113.461 16.1191C114.064 16.1191 114.509 16.5628 114.509 17.1838C114.509 17.8047 114.06 18.2456 113.457 18.2456L113.461 18.2428ZM119.929 18.6922L119.923 15.6678H119.468L118.295 17.672L117.105 15.6678H116.649V18.6922H117.174V16.7169L118.16 18.3449H118.403L119.395 16.6881L119.401 18.6922H119.929ZM122.28 18.2197V17.3912H123.721V16.93H122.278V16.1446H123.906V15.672H121.72V18.6965H123.963V18.2239L122.28 18.2197ZM127.683 15.6678V17.7173L126.032 15.6678H125.577V18.6922H126.129V16.6512L127.78 18.6951H128.232V15.6706L127.683 15.6678ZM130.638 18.6922H131.191V16.1503H132.183V15.672H129.644V16.1503H130.64L130.638 18.6922ZM134.949 18.7395C135.877 18.7395 136.56 18.0779 136.56 17.1852C136.56 16.2925 135.877 15.6305 134.949 15.6305C134.02 15.6305 133.337 16.2921 133.337 17.1852C133.337 18.0784 134.016 18.7409 134.943 18.7409L134.949 18.7395ZM134.949 18.2442C134.345 18.2442 133.895 17.8 133.895 17.1852C133.895 16.5704 134.345 16.1205 134.949 16.1205C135.552 16.1205 135.996 16.5642 135.996 17.1852C135.996 17.8062 135.548 18.2456 134.943 18.2456L134.949 18.2442Z" fill="#ffffff"/>
</svg>
