<svg xmlns="http://www.w3.org/2000/svg" viewBox="0 0 165.51 57.03"><defs><style>.cls-1{fill:#00a4ff;}.cls-1,.cls-2{opacity:0.44;}.cls-2{fill:#e1007e;}</style></defs><title>Ativo 6</title><g id="Camada_2" data-name="Camada 2"><g id="Camada_1-2" data-name="Camada 1"><rect class="cls-1" x="26.54" y="-2.25" width="26.14" height="61.51" rx="13.07" transform="translate(59.67 72.99) rotate(-150)"/><rect class="cls-2" x="8.84" y="-2.22" width="26.14" height="61.51" rx="13.07" transform="translate(-11.33 14.78) rotate(-30)"/><rect class="cls-1" x="65.92" width="24.24" height="24.24" rx="12.12" transform="translate(156.09 24.24) rotate(-180)"/><rect class="cls-2" x="65.92" y="12.12" width="24.24" height="44.91" rx="12.12" transform="translate(156.09 69.15) rotate(-180)"/><path class="cls-1" d="M141.3,15.88a5,5,0,0,1-7.45-1.46c-.83-1.46-2.6-3.91-5.14-3.91l-.38,0a4.38,4.38,0,0,0-3.65,2.65c-.71,2,.62,3.43,3.85,5.92a14.63,14.63,0,0,1,2.74,2.47c3,3.8,2.37,8.86-1.58,13.53a8.92,8.92,0,0,1-5.26,3c-9.44,1.61-14.59,5.64-16.76,8.46-3.41,4.24-3.09,9.61-7.11,10a4.94,4.94,0,0,1-2.91-.94,4.89,4.89,0,0,1-2-3c-.87-4.13,3.16-14,12.78-19.53a43.2,43.2,0,0,1,13.61-4.76.47.47,0,0,0,.27-.14,6.14,6.14,0,0,0,.41-.64c-7-5-9.74-11.42-7.5-17.74A14.4,14.4,0,0,1,127.44.56c.42,0,.85-.06,1.27-.06,5.49,0,10.49,3.22,13.75,8.83A5.1,5.1,0,0,1,141.3,15.88Z"/><path class="cls-2" d="M138.31,28.32a5.84,5.84,0,0,0-.73-.05,5,5,0,0,0-5,4.76A5.07,5.07,0,0,0,137,38.24c9.73,1.46,14.43,5.06,16.7,8.33H100.56a5,5,0,0,0,0,10h59.57a5.44,5.44,0,0,0,5.35-5.33C165.84,46.39,161.63,31.75,138.31,28.32Z"/></g></g></svg>