<svg xmlns="http://www.w3.org/2000/svg" x="0px" y="0px"
width="50" height="50"
viewBox="0 0 172 172"
style=" fill:#000000;"><g fill="none" fill-rule="nonzero" stroke="none" stroke-width="1" stroke-linecap="butt" stroke-linejoin="miter" stroke-miterlimit="10" stroke-dasharray="" stroke-dashoffset="0" font-family="none" font-weight="none" font-size="none" text-anchor="none" style="mix-blend-mode: normal"><path d="M0,172v-172h172v172z" fill="none"></path><g fill="#000000"><path d="M68.2625,6.88l-20.64,3.44l-1.505,0.3225l-0.7525,1.1825l-37.84,55.04l-1.8275,2.58l2.4725,2.0425l20.64,17.2l2.795,2.365l2.15,-3.1175l7.525,-10.535v53.32h3.44v34.4h6.88v-34.4h68.8v34.4h6.88v-34.4h3.44v-49.88l7.525,10.535l2.15,3.1175l2.795,-2.365l20.64,-17.2l2.365,-2.0425l-1.6125,-2.4725l-37.84,-58.48l-0.86,-1.29l-1.505,-0.3225l-20.64,-3.44zM73.96,13.76h24.1875l-11.395,29.5625zM66.7575,14.19l22.6825,52.46v57.19h-41.28v-68.155l-6.235,8.9225l-11.61,16.34l-15.3725,-12.7925l35.1525,-51.17zM105.35,14.19l16.4475,2.795l35.3675,54.61l-15.48,12.7925l-11.61,-16.34l-6.235,-8.9225v64.715h-27.52v-58.48l-0.3225,-0.645l-5.2675,-12.3625zM79.12,79.12c-1.89469,0 -3.44,1.54531 -3.44,3.44c0,1.89469 1.54531,3.44 3.44,3.44c1.89469,0 3.44,-1.54531 3.44,-3.44c0,-1.89469 -1.54531,-3.44 -3.44,-3.44zM79.12,92.88c-1.89469,0 -3.44,1.54531 -3.44,3.44c0,1.89469 1.54531,3.44 3.44,3.44c1.89469,0 3.44,-1.54531 3.44,-3.44c0,-1.89469 -1.54531,-3.44 -3.44,-3.44zM79.12,106.64c-1.89469,0 -3.44,1.54531 -3.44,3.44c0,1.89469 1.54531,3.44 3.44,3.44c1.89469,0 3.44,-1.54531 3.44,-3.44c0,-1.89469 -1.54531,-3.44 -3.44,-3.44zM82.56,151.36v13.76h6.88v-13.76z"></path></g></g></svg>