<svg xmlns="http://www.w3.org/2000/svg" x="0px" y="0px"
width="50" height="50"
viewBox="0 0 172 172"
style=" fill:#000000;"><g fill="none" fill-rule="nonzero" stroke="none" stroke-width="1" stroke-linecap="butt" stroke-linejoin="miter" stroke-miterlimit="10" stroke-dasharray="" stroke-dashoffset="0" font-family="none" font-weight="none" font-size="none" text-anchor="none" style="mix-blend-mode: normal"><path d="M0,172v-172h172v172z" fill="none"></path><g fill="#000000"><path d="M65.36,10.32c-0.08972,0.00097 -0.17938,0.00546 -0.26875,0.01344c-0.11482,0.0077 -0.22918,0.02115 -0.34265,0.04031c-0.2106,0.03446 -0.41753,0.08845 -0.61813,0.16125l-23.79781,6.79938c-0.04056,0.01269 -0.08088,0.02613 -0.12094,0.04031c-0.4519,0.117 -11.93788,3.16545 -17.87859,13.06797c-8.23961,13.72465 -21.84937,36.59703 -21.84937,36.59703c-0.96678,1.62449 -0.44172,3.7247 1.17578,4.70313l22.79,13.76c1.60911,0.97188 3.70039,0.47224 4.69641,-1.12203l8.69406,-13.90781v87.76703c0.00019,1.89978 1.54022,3.43981 3.44,3.44h89.44c1.89978,-0.00019 3.43981,-1.54022 3.44,-3.44v-87.76703l8.69406,13.90781c0.99602,1.59428 3.0873,2.09391 4.6964,1.12203l22.79,-13.76c1.6175,-0.97842 2.14256,-3.07864 1.17578,-4.70313c0,0 -13.60976,-22.87238 -21.84938,-36.59703c-5.83175,-9.72089 -16.89704,-12.79769 -17.7375,-13.02094c-0.08614,-0.03261 -0.17355,-0.06175 -0.26203,-0.08734l-23.73735,-6.77922c-0.41095,-0.16036 -0.8489,-0.2402 -1.29,-0.23516c-0.02463,-0.00026 -0.04927,-0.00026 -0.0739,0h-20.5661h-20.5661zM70.02281,17.2h15.97719h15.97719c-0.43591,1.01807 -0.96695,2.1029 -1.73344,3.23844c-2.43974,3.61443 -6.30581,7.08156 -14.24375,7.08156c-7.93794,0 -11.80401,-3.46713 -14.24375,-7.08156c-0.76649,-1.13553 -1.29752,-2.22037 -1.73344,-3.23844zM63.03531,17.99953c0.61973,1.81212 1.48593,4.00424 3.02344,6.28203c3.36526,4.98557 9.81919,10.11844 19.94125,10.11844c10.12206,0 16.57599,-5.13287 19.94125,-10.11844c1.53751,-2.27779 2.40371,-4.46991 3.02344,-6.28203l17.28063,4.93828c-1.11811,3.19842 -2.40531,7.8953 -2.40531,14.90219c0,12.82039 2.77003,19.54786 3.4064,20.9961c0.00879,0.07425 0.01999,0.1482 0.0336,0.22172v95.74219h-82.56v-95.73547c0.0136,-0.07352 0.02481,-0.14747 0.0336,-0.22172c0.63372,-1.44155 3.4064,-8.17311 3.4064,-21.00281c0,-7.00689 -1.2872,-11.70377 -2.40531,-14.90219zM39.3114,25.14156c0.8877,2.67256 1.9686,6.94582 1.9686,12.69844c0,12.96878 -2.94524,18.83491 -3.0436,19.0275l-13.12844,20.9961l-16.95812,-10.23938c1.89761,-3.18832 12.51837,-21.04153 20.08234,-33.64078c2.81016,-4.68423 7.87924,-7.43113 11.07922,-8.84187zM132.6886,25.14156c3.19998,1.41075 8.26905,4.15765 11.07922,8.84187c7.56398,12.59925 18.18473,30.45246 20.08234,33.64078l-16.95812,10.23938l-13.12844,-20.9961c-0.09836,-0.19259 -3.0436,-6.05872 -3.0436,-19.0275c0,-5.75262 1.08089,-10.02588 1.9686,-12.69844z"></path></g></g></svg>