<svg xmlns="http://www.w3.org/2000/svg" x="0px" y="0px"
width="50" height="50"
viewBox="0 0 50 50"
style=" fill:#000000;"><path d="M 3.8125 4 C 3.335938 4.089844 2.992188 4.511719 3 5 L 3 9.75 C 1.214844 15.269531 1 22.4375 1 22.4375 C 1 22.449219 1 22.457031 1 22.46875 L 1 27.78125 C 0.972656 27.914063 0.972656 28.054688 1 28.1875 L 1 45 C 1 45.550781 1.449219 46 2 46 L 21 46 C 21.464844 45.996094 21.867188 45.671875 21.96875 45.21875 L 25 30.8125 L 28.03125 45.21875 C 28.132813 45.671875 28.535156 45.996094 29 46 L 48 46 C 48.550781 46 49 45.550781 49 45 L 49 28.21875 C 49.03125 28.074219 49.03125 27.925781 49 27.78125 L 49 22.46875 C 49 22.457031 49 22.449219 49 22.4375 C 49 22.4375 48.785156 15.265625 47 9.75 L 47 5 C 47 4.449219 46.550781 4 46 4 L 4 4 C 3.96875 4 3.9375 4 3.90625 4 C 3.875 4 3.84375 4 3.8125 4 Z M 5 6 L 45 6 L 45 9.4375 C 44.945313 9.621094 44.945313 9.816406 45 10 L 5 10 L 5 9.875 C 5.003906 9.832031 5.003906 9.792969 5 9.75 Z M 4.40625 12 L 14 12 C 14 18.683594 10.988281 22.324219 7.9375 24.4375 C 5.996094 25.78125 4.152344 26.410156 3 26.71875 L 3 22.46875 C 3 22.421875 3.203125 16.792969 4.40625 12 Z M 16 12 L 34 12 C 34 19.300781 37.488281 23.671875 40.9375 26.0625 C 43.386719 27.761719 45.785156 28.511719 47 28.8125 L 47 44 L 29.8125 44 L 25.96875 25.78125 C 25.855469 25.339844 25.457031 25.03125 25 25.03125 C 24.542969 25.03125 24.144531 25.339844 24.03125 25.78125 L 20.1875 44 L 3 44 L 3 28.8125 C 4.214844 28.511719 6.613281 27.761719 9.0625 26.0625 C 12.511719 23.671875 16 19.300781 16 12 Z M 36 12 L 45.59375 12 C 46.796875 16.792969 47 22.421875 47 22.46875 L 47 26.71875 C 45.847656 26.410156 44.003906 25.78125 42.0625 24.4375 C 39.011719 22.324219 36 18.683594 36 12 Z"></path></svg>