<svg xmlns="http://www.w3.org/2000/svg" x="0px" y="0px"
width="50" height="50"
viewBox="0 0 50 50"
style=" fill:#000000;"><path d="M 9.84375 3 C 9.351563 3.078125 8.992188 3.503906 9 4 L 9 7.875 L 0.03125 41.75 C -0.0351563 42.015625 0.0078125 42.300781 0.15625 42.53125 C 0.15625 42.53125 0.304688 42.714844 0.46875 42.875 C 0.632813 43.035156 0.851563 43.25 1.1875 43.46875 C 1.863281 43.910156 2.957031 44.449219 4.6875 44.96875 C 8.152344 46.011719 14.222656 47 25 47 C 35.777344 47 41.847656 46.011719 45.3125 44.96875 C 47.042969 44.449219 48.136719 43.910156 48.8125 43.46875 C 49.148438 43.25 49.367188 43.035156 49.53125 42.875 C 49.695313 42.714844 49.84375 42.53125 49.84375 42.53125 C 49.992188 42.300781 50.035156 42.015625 49.96875 41.75 L 41 7.875 L 41 4 C 41.003906 3.707031 40.878906 3.425781 40.652344 3.230469 C 40.429688 3.039063 40.136719 2.953125 39.84375 3 C 39.84375 3 32.875 4 25 4 C 17.125 4 10.15625 3 10.15625 3 C 10.050781 2.984375 9.949219 2.984375 9.84375 3 Z M 11 5.125 C 12.484375 5.320313 17.976563 6 25 6 C 32.023438 6 37.515625 5.320313 39 5.125 L 39 7.09375 C 37.859375 7.246094 32.183594 8 25 8 C 17.816406 8 12.140625 7.246094 11 7.09375 Z M 10.75 9.125 C 11.550781 9.226563 12.804688 9.367188 14.6875 9.53125 C 14.648438 9.945313 14.480469 10.914063 13.84375 12.0625 C 13.097656 13.410156 11.734375 14.945313 8.9375 15.9375 Z M 39.25 9.125 L 41.0625 15.9375 C 38.265625 14.945313 36.902344 13.410156 36.15625 12.0625 C 35.519531 10.914063 35.351563 9.945313 35.3125 9.53125 C 37.195313 9.367188 38.449219 9.226563 39.25 9.125 Z M 16.65625 9.6875 C 19.082031 9.863281 21.960938 10 25 10 C 28.039063 10 30.917969 9.863281 33.34375 9.6875 C 33.402344 10.296875 33.613281 11.601563 34.40625 13.03125 C 35.476563 14.964844 37.644531 17.140625 41.65625 18.21875 L 47.875 41.65625 C 47.8125 41.703125 47.808594 41.722656 47.71875 41.78125 C 47.242188 42.089844 46.339844 42.550781 44.75 43.03125 C 41.570313 43.988281 35.652344 45 25 45 C 14.347656 45 8.429688 43.988281 5.25 43.03125 C 3.660156 42.550781 2.757813 42.089844 2.28125 41.78125 C 2.191406 41.722656 2.1875 41.703125 2.125 41.65625 L 8.34375 18.21875 C 12.355469 17.140625 14.523438 14.964844 15.59375 13.03125 C 16.386719 11.601563 16.597656 10.296875 16.65625 9.6875 Z"></path></svg>