<svg xmlns="http://www.w3.org/2000/svg" x="0px" y="0px"
width="50" height="50"
viewBox="0 0 172 172"
style=" fill:#000000;"><g fill="none" fill-rule="nonzero" stroke="none" stroke-width="1" stroke-linecap="butt" stroke-linejoin="miter" stroke-miterlimit="10" stroke-dasharray="" stroke-dashoffset="0" font-family="none" font-weight="none" font-size="none" text-anchor="none" style="mix-blend-mode: normal"><path d="M0,172v-172h172v172z" fill="none"></path><g fill="#000000"><path d="M33.97,6.88c-1.77375,0.22844 -3.07719,1.76031 -3.01,3.5475c0,0 0.1075,10.09156 0.1075,22.36c-0.25531,0.72563 -0.25531,1.53188 0,2.2575c-0.01344,5.21375 -0.02687,9.7825 -0.1075,15.5875c-0.13437,10.37375 -0.43,21.00281 -0.9675,29.67c-0.26875,4.32688 -0.56437,8.19688 -0.9675,11.18c-0.40312,2.98313 -1.06156,5.30781 -1.29,5.805c-3.82969,8.2775 -7.095,17.01188 -7.095,29.9925c0,5.375 3.37281,9.76906 8.2775,12.255c4.90469,2.48594 11.42188,3.9775 19.995,5.59c31.12125,5.84531 52.16438,12.95375 61.92,16.0175c4.97188,1.55875 13.80031,3.9775 23.3275,3.9775c5.0525,0 10.58875,-1.23625 15.1575,-3.3325c2.28438,-1.04812 4.25969,-2.32469 5.9125,-3.9775c1.65281,-1.65281 3.01,-3.84312 3.01,-6.45c0,-8.93594 -3.39969,-16.29969 -7.955,-21.715c-4.42094,-5.25406 -9.83625,-8.68062 -14.62,-10.6425c-0.13437,-0.08062 -0.28219,-0.14781 -0.43,-0.215c-9.23156,-3.655 -27.70812,-8.07594 -40.3125,-12.255c-4.60906,-1.53187 -6.47687,-3.99094 -7.6325,-7.095c-1.15562,-3.10406 -1.29,-6.89344 -1.29,-9.9975c0,-2.76812 0.86,-22.13156 1.72,-40.205c0.24188,-5.06594 0.30906,-5.32125 0.5375,-9.89c0.33594,-0.77937 0.37625,-1.66625 0.1075,-2.4725c0.48375,-10.02437 1.075,-22.8975 1.075,-22.8975c0.05375,-0.91375 -0.24187,-1.81406 -0.86,-2.49937c-0.60469,-0.68531 -1.45125,-1.10188 -2.365,-1.15563l-51.6,-3.44c-0.215,-0.02687 -0.43,-0.02687 -0.645,0zM37.84,13.975l44.505,3.01c-0.08062,1.57219 -0.56437,10.95156 -0.86,17.3075c-11.19344,-0.76594 -21.78219,-1.54531 -29.67,-2.15c-4.38062,-0.33594 -8.0625,-0.69875 -10.8575,-0.9675c-1.59906,-0.16125 -2.05594,-0.20156 -3.01,-0.3225c-0.01344,-8.41187 -0.08062,-15.00969 -0.1075,-16.8775zM37.9475,37.84c0.71219,0.06719 1.37063,0.13438 2.2575,0.215c2.87563,0.28219 6.665,0.63156 11.0725,0.9675c7.98188,0.61813 18.5975,1.29 29.885,2.0425c-0.16125,3.48031 -0.13437,3.82969 -0.3225,7.8475c-0.86,18.08688 -1.72,36.59031 -1.72,40.5275c0,3.18469 0.01344,7.78031 1.72,12.3625c1.70656,4.58219 5.49594,9.15094 11.9325,11.2875c10.92469,3.61469 25.45063,7.33688 34.7225,10.32c-4.89125,5.41531 -12.51031,16.11156 -13.6525,31.4975c-0.30906,-0.09406 -0.68531,-0.22844 -0.9675,-0.3225c-8.04906,-2.52625 -24.76531,-8.18344 -48.805,-13.4375c-0.02687,-10.54844 -0.51062,-20.45187 -4.6225,-28.9175c-3.9775,-8.17 -11.63687,-14.405 -23.9725,-17.845c0.09406,-0.645 0.22844,-1.19594 0.3225,-1.935c0.43,-3.25187 0.79281,-7.28312 1.075,-11.7175c0.55094,-8.86875 0.81969,-19.55156 0.9675,-29.9925c0.06719,-5.02562 0.09406,-8.61344 0.1075,-12.9zM33.755,100.835c10.89781,2.99656 16.31313,7.92813 19.4575,14.405c3.10406,6.39625 3.87,14.84844 3.9775,24.51c-2.29781,-0.47031 -4.56875,-0.94062 -6.9875,-1.3975c-8.42531,-1.58562 -14.59312,-3.13094 -18.1675,-4.945c-3.57437,-1.81406 -4.515,-3.05031 -4.515,-6.1275c0,-11.47562 2.70094,-18.73187 6.235,-26.445zM134.59,125.99c3.44,1.69313 7.32344,4.47469 10.4275,8.17c3.69531,4.39406 6.3425,9.9975 6.3425,17.2c0,0.26875 -0.14781,0.79281 -0.9675,1.6125c-0.81969,0.81969 -2.21719,1.77375 -3.9775,2.58c-3.52062,1.6125 -8.37156,2.6875 -12.255,2.6875c-4.78375,0 -9.47344,-0.72562 -13.545,-1.6125c0.83313,-17.60312 11.00531,-27.96344 13.975,-30.6375z"></path></g></g></svg>