<svg xmlns="http://www.w3.org/2000/svg" x="0px" y="0px"
width="50" height="50"
viewBox="0 0 172 172"
style=" fill:#000000;"><g fill="none" fill-rule="nonzero" stroke="none" stroke-width="1" stroke-linecap="butt" stroke-linejoin="miter" stroke-miterlimit="10" stroke-dasharray="" stroke-dashoffset="0" font-family="none" font-weight="none" font-size="none" text-anchor="none" style="mix-blend-mode: normal"><path d="M0,172v-172h172v172z" fill="none"></path><g fill="#000000"><path d="M40.85,0c-1.63937,0.30906 -2.82187,1.76031 -2.795,3.44v165.12c0,1.89469 1.54531,3.44 3.44,3.44h31.82c1.74688,0.01344 3.225,-1.27656 3.44,-3.01l9.245,-83.3125l9.245,83.3125c0.215,1.73344 1.69313,3.02344 3.44,3.01h31.82c1.89469,0 3.44,-1.54531 3.44,-3.44v-165.12c0,-1.89469 -1.54531,-3.44 -3.44,-3.44h-89.01c-0.1075,0 -0.215,0 -0.3225,0c-0.1075,0 -0.215,0 -0.3225,0zM44.935,6.88h82.13v6.88h-19.78c-0.45687,-0.09406 -0.94062,-0.09406 -1.3975,0h-39.8825c-0.45687,-0.09406 -0.94062,-0.09406 -1.3975,0h-19.6725zM44.935,20.64h16.8775c-0.77937,11.30094 -5.34812,16.985 -9.7825,20.21c-2.72781,1.98875 -5.2675,2.86219 -7.095,3.3325zM68.585,20.64h34.83c0.87344,13.30313 6.54406,21.37906 12.47,25.6925c4.4075,3.21156 8.80156,4.34031 11.18,4.8375v113.95h-25.2625l-12.3625,-111.2625c-0.02687,-1.88125 -1.55875,-3.38625 -3.44,-3.38625c-1.88125,0 -3.41312,1.505 -3.44,3.38625l-12.3625,111.2625h-25.2625v-113.95c2.37844,-0.49719 6.7725,-1.62594 11.18,-4.8375c5.92594,-4.31344 11.59656,-12.38937 12.47,-25.6925zM110.1875,20.64h16.8775v23.5425c-1.8275,-0.47031 -4.36719,-1.34375 -7.095,-3.3325c-4.43437,-3.225 -9.00312,-8.90906 -9.7825,-20.21z"></path></g></g></svg>